<?xml version="1.0" standalone="no"?>
<!DOCTYPE svg PUBLIC "-//W3C//DTD SVG 20010904//EN"
 "http://www.w3.org/TR/2001/REC-SVG-20010904/DTD/svg10.dtd">
<svg version="1.0" xmlns="http://www.w3.org/2000/svg"
 width="2000.000000pt" height="1500.000000pt" viewBox="0 0 2000.000000 1500.000000"
 preserveAspectRatio="xMidYMid meet">

<g transform="translate(0.000000,1500.000000) scale(0.100000,-0.100000)"
fill="#000000" stroke="none">
<path d="M12790 8129 c-49 -20 -70 -54 -144 -228 -40 -97 -102 -242 -136 -323
l-62 -148 -477 0 c-387 -1 -472 -3 -453 -13 39 -22 54 -54 55 -117 0 -40 -5
-67 -17 -85 -34 -52 -55 -55 -436 -55 -232 0 -350 -3 -350 -10 0 -7 292 -10
908 -8 856 3 909 4 935 21 39 26 55 56 144 268 43 104 80 189 83 189 3 0 109
-253 235 -562 127 -308 238 -572 248 -585 27 -34 70 -53 122 -53 37 0 51 6 81
33 36 33 40 44 229 524 l60 152 597 3 c587 3 597 3 625 24 41 30 73 82 73 118
0 43 -29 97 -67 122 -30 20 -48 21 -345 27 -172 3 -476 3 -675 -1 l-363 -7
-34 -35 c-25 -27 -52 -83 -111 -233 -43 -109 -82 -194 -86 -190 -4 4 -109 255
-233 557 -124 302 -236 561 -248 574 -46 49 -102 63 -158 41z"/>
</g>
</svg>
