<svg xmlns="http://www.w3.org/2000/svg" width="1319.133" height="174.398" viewBox="0 0 1319.133 174.398">
  <g id="logoo" transform="translate(-340.338 -684.86)">
    <path id="Path_2" data-name="Path 2" d="M0,0,2.7-.191C7.736,1.054,10.572,3.494,13.75,7.563c3.106,5.542,5.228,11.584,7.5,17.5q1.032,2.612,2.072,5.221,2.157,5.424,4.286,10.858c3.021,7.678,6.176,15.3,9.326,22.927q2.486,6.025,4.953,12.057l.97,2.366q7.994,19.516,15.894,39.072l.93-2.289q1.747-4.294,3.495-8.588l2.225-5.471q1.455-3.575,2.92-7.145,1.413-3.465,2.784-6.946L72.391,83.9l1.122-2.856a19.334,19.334,0,0,1,8.237-8.484,30.109,30.109,0,0,1,9.595-1.114h3.4l3.649.016,3.749,0q4.921.007,9.844.025,5.028.015,10.055.02,9.855.015,19.711.049v-35l-8.687.105q-4.2.035-8.391.059-2.9.022-5.8.062c-2.791.037-5.581.054-8.371.067l-2.593.047c-5.98,0-12.07-.542-16.72-4.757-3.983-4.588-4.794-8.435-4.718-14.3.586-4.756,3.421-7.505,6.844-10.594,3.563-2.467,6.241-2.814,10.465-2.828l3.148-.017,3.452,0,3.637-.015q4.941-.018,9.881-.024l6.176-.011q9.664-.021,19.33-.027,11.15-.007,22.3-.051,8.623-.032,17.246-.033,5.148,0,10.3-.025,5.745-.026,11.491-.009l3.434-.028c6.4.034,11.321.34,16.227,4.92,4.184,5.472,4.987,8.656,4.355,15.465a17.721,17.721,0,0,1-8,10c-5.246,2.239-9.958,2.262-15.555,2.2l-2.732-.009q-4.294-.017-8.588-.062l-5.844-.027q-7.14-.03-14.281-.1v35c11.2-.118,11.2-.118,22.406-.27q2.127-.013,4.254-.023l2.182-.047a25.5,25.5,0,0,1,13.158,3.34c4.649,5.016,5.462,8.451,5.418,15.164-.659,4.472-2.929,7.091-6.418,9.836-3.868,2.63-7.992,2.255-12.484,2.2l-2.472-.009c-2.6-.011-5.2-.036-7.794-.061q-2.646-.017-5.293-.028-6.479-.033-12.957-.1c.01,1.069.01,1.069.02,2.161q.09,10.107.135,20.214.024,5.2.071,10.392c.039,3.986.054,7.972.067,11.959.015,1.238.031,2.475.047,3.751,0,10.811,0,10.811-3.34,15.523-4.818,4.608-8.662,7.039-15.312,7.312-5.54-.166-10.317-1.132-14.485-4.965-4.07-4.584-5.33-7.822-5.317-14.012,0-1.161,0-2.322,0-3.518.005-1.254.01-2.507.015-3.8,0-1.925,0-1.925.005-3.888q0-5.112.024-10.224.017-5.219.02-10.437.015-10.234.049-20.47h-44l-3,9q-.988,2.7-2.021,5.392l-1.113,2.893-1.174,3.031-1.236,3.2q-1.288,3.33-2.579,6.658-1.965,5.07-3.917,10.144-1.258,3.249-2.518,6.5l-1.168,3.037c-7.015,18.017-7.015,18.017-15.273,22.147-5.607.373-9.168.184-14-3-4.036-4.285-6.053-9.153-8.312-14.5l-1.287-3c-4.949-11.637-9.661-23.371-14.39-35.1q-7.783-19.3-15.732-38.533-2.26-5.5-4.512-11-1.051-2.565-2.109-5.128L2.293,60.574l-.925-2.255A7.558,7.558,0,0,1,.75,54.563h-2l-.434,1.649A173.227,173.227,0,0,1-9.7,77.86c-.865,2.023-1.706,4.055-2.547,6.088q-.837,1.959-1.678,3.916l-1.5,3.536a21.824,21.824,0,0,1-9.827,9.163c-2.393.095-4.757.13-7.15.12l-2.257,0q-3.763,0-7.527-.009h-5.38q-7.32,0-14.64-.012-7.643-.009-15.287-.008-14.481,0-28.963-.021-16.483-.018-32.967-.022-33.913-.017-67.829-.05v38l17.691-.106q5.558-.022,11.116-.041,8.815-.027,17.631-.08,7.108-.048,14.219-.058,2.709-.009,5.417-.033c2.535-.022,5.069-.024,7.6-.023l2.247-.033c6.257.037,10.963,1.316,15.512,5.749,2.333,5.41,2.37,10.815,1.563,16.625-2.2,4.576-4.3,6.081-9,8a28.2,28.2,0,0,1-8.3,1.14l-2.583.017-2.808,0-2.978.015q-4.877.021-9.754.027l-6.786.017q-7.116.015-14.233.02-9.106.008-18.212.058-7.011.027-14.021.025-3.357,0-6.712.024-4.7.025-9.406.009l-2.784.028c-7.009-.045-12.613-1.135-18.237-5.634-5.772-7.257-5.624-13.921-5.591-22.9-.007-1.314-.014-2.629-.021-3.983q-.027-5.387-.011-10.773,0-4.507-.009-9.013-.021-10.636,0-21.273.017-10.952-.029-21.9-.034-9.423-.023-18.847,0-5.619-.017-11.238c-.018-4.179,0-8.358.013-12.537-.009-1.232-.019-2.464-.029-3.733.064-7.459.612-13.452,6.014-19.1,3.825-3.361,6.86-4.572,11.862-4.591l2.689-.017,2.942,0,3.1-.015q5.094-.022,10.189-.027l7.073-.017q7.42-.016,14.842-.02,9.507-.008,19.016-.058,7.307-.028,14.615-.025,3.506,0,7.011-.024,4.905-.026,9.809-.009l2.924-.028c6.471.04,10.836.991,15.752,5.509,2.741,4.669,3.126,8.995,2.317,14.316-1.1,4.159-2.252,6.789-6,9.059-5.5,2.276-10.357,2.644-16.261,2.613h-2.278q-3.709,0-7.418-.016l-5.158,0q-6.774-.006-13.548-.025-8.135-.018-16.269-.022-12.346-.015-24.693-.046v34l11.359-.035q8.2-.019,16.391-.027l2.188,0c30.773-.032,61.541.242,92.312.565l3.447.036q21.152.223,42.3.464l.593-1.808c1.309-3.966,2.613-7.91,4.213-11.771l.972-2.358,1.023-2.453,1.087-2.626q1.134-2.734,2.272-5.466,1.715-4.118,3.416-8.241c12.8-30.866,12.8-30.866,18.346-34.555A24.144,24.144,0,0,1,0,0Z" transform="translate(1284.25 685.438)" fill="#184569"/>
    <path id="Path_3" data-name="Path 3" d="M0,0,2.47-.02q4.055-.03,8.111-.041l2.81-.012Q20.77-.1,28.148-.118,35.718-.135,43.287-.2q5.861-.04,11.722-.038Q57.8-.249,60.582-.276c17-.16,34.689,1.615,47.827,13.731,9.4,10.16,12.136,22.194,11.871,35.73A42.531,42.531,0,0,1,106,79.052a38.826,38.826,0,0,1-10,6.125l1.758.848c6.252,3.209,11.339,6.577,14.119,13.262,2.143,6.89,2.743,13.522,3.123,20.7a119.387,119.387,0,0,0,3.379,23.437c1.264,5.6,2.131,11.637-.445,16.949a20.306,20.306,0,0,1-12.934,7.8c-6.036.751-11.711.147-17-3a26.854,26.854,0,0,1-9.36-17.967c-.24-3.406-.416-6.81-.577-10.22-.439-16.62-.439-16.62-8.437-30.5-5.9-4.513-12.51-4.637-19.617-4.727l-2.866-.059q-4.508-.089-9.016-.152-3.066-.057-6.133-.117-7.5-.144-14.992-.258c.009.646.018,1.292.027,1.958q.133,10.124.193,20.247.03,3.774.082,7.547c.049,3.625.071,7.248.089,10.873.021,1.118.041,2.236.063,3.388,0,6.82-.8,11.182-4.453,16.987-4.434,4.434-9.131,6.052-15.312,6.375-5.022-.152-9.676-1.271-13.688-4.375-5.918-6.575-5.707-13.433-5.631-21.908q-.008-2.1-.022-4.191c-.018-3.775-.006-7.55.014-11.325.016-3.961.008-7.922,0-11.884q-.007-9.977.039-19.952.048-11.513.015-23.026-.024-11.1.008-22.2.01-4.713,0-9.425-.012-5.556.032-11.11c.01-2,0-4-.009-5.992.075-7.117.608-11.979,4.553-17.982C-11.384.709-6.966.024,0,0ZM17,29.177v44l19.313.125,6.025.055c17.78.651,17.78.651,33.284-6.649,4.606-4.86,6.392-9.375,6.371-16.051-.467-6.766-1.841-11.377-6.8-16.231-7.806-5.51-16.839-5.4-26.059-5.348l-2.481,0q-4.543.008-9.086.032Z" transform="translate(361.997 689.823)" fill="#4da0d9"/>
    <path id="Path_4" data-name="Path 4" d="M0,0Q2.513,2.232,4.938,4.563L7.1,6.641C25.16,25.466,28.595,50.34,28.25,75.355,27.515,98.87,18.167,121.318.938,137.563c-19,15.723-43.16,20.978-67.409,18.781-21.793-2.495-41.578-10.284-55.591-27.781C-138.075,106.2-141.894,76.729-137.938,50c3.5-21.115,13.456-39.938,31.008-52.719C-76.038-22.668-29.538-23.272,0,0ZM-88.812,28.25C-98.1,39.584-100.62,54.185-100.438,68.438c.009,1.137.018,2.275.027,3.447.278,15.975,3.664,31.917,15.313,43.659,10.238,8.683,23.14,10.695,36.238,9.8,10.482-1.4,19.737-5.8,26.8-13.781C-10.389,95.521-8.113,74.844-10.488,55.551c-2.272-13.342-7.624-25.579-18.574-33.988C-47.907,9.682-73.275,11.945-88.812,28.25Z" transform="translate(641.063 702.438)" fill="#4da0d9"/>
    <path id="Path_5" data-name="Path 5" d="M0,0C5.107,3.7,7.988,6.626,9.5,12.813c.266,3.916.233,7.819.2,11.742,0,1,0,1.993-.006,3.02-.01,3.7-.038,7.409-.064,11.113L9.5,63.813h67c-.158-16.753-.158-16.753-.36-33.506q-.017-3.169-.03-6.338c-.021-1.082-.041-2.164-.062-3.278,0-7.5.991-12.941,6.1-18.753C88.5-2.2,95.136-2.108,102.5-1.187c5.219,1.439,8.24,4.934,10.949,9.434,2.188,5.341,1.725,11.1,1.666,16.781q.006,2.145.017,4.29c.014,3.864,0,7.727-.026,11.59-.02,4.052-.014,8.1-.012,12.155q0,10.2-.052,20.4-.056,11.782-.039,23.565.011,11.354-.024,22.707-.012,4.824-.009,9.648,0,5.681-.039,11.362-.01,2.08-.006,4.162c0,1.9-.013,3.8-.031,5.694,0,1.591,0,1.591-.011,3.214-.651,5.091-2.585,8.234-6.258,11.747-5.684,4.092-10.228,4.965-17.125,4.25-5.848-1.17-9.165-3.677-12.871-8.282-2.3-3.5-2.251-6.594-2.242-10.659,0-1.238,0-2.476,0-3.752.005-1.3.01-2.6.015-3.944,0-1.2,0-2.392,0-3.625q.008-6.712.032-13.426c.021-10,.041-20.006.063-30.312H9.5c.119,19.057.119,19.057.27,38.113q.013,3.6.023,7.2l.047,3.736c0,14.093,0,14.093-4.65,19.464-5.2,4.714-10.651,5.92-17.451,5.738-4.794-.536-8.228-2.47-11.988-5.375-5.892-7.53-5.679-16.145-5.622-25.346q0-2.008-.011-4.015-.014-5.413.013-10.828.017-5.685.005-11.372,0-9.543.029-19.087.032-11.011.019-22.022-.009-10.624.011-21.248.007-4.508,0-9.015,0-5.313.022-10.625.009-2.864,0-5.728c.1-15.954.1-15.954,5.095-21.465l1.457-1.68C-17.034-2.917-7.27-2.467,0,0Z" transform="translate(889.5 688.188)" fill="#4da0d9"/>
    <path id="Path_6" data-name="Path 6" d="M0,0,2.689-.017l2.942,0L8.736-.036q5.094-.022,10.189-.027L26-.08Q33.419-.1,40.84-.1q9.508-.008,19.016-.058,7.308-.028,14.616-.025,3.505,0,7.01-.024,4.9-.026,9.809-.009l2.924-.028c6.471.04,10.836.991,15.753,5.509,2.74,4.669,3.125,8.995,2.316,14.316-1.1,4.159-2.252,6.789-6,9.059-5.5,2.276-10.357,2.644-16.26,2.614H87.741q-3.709,0-7.418-.016l-5.158,0q-6.774-.006-13.548-.025-8.135-.018-16.27-.022Q33,31.172,20.655,31.14v34l14.664-.07q4.607-.015,9.215-.027,7.308-.018,14.616-.053,5.894-.033,11.788-.039,2.245-.006,4.49-.022,3.152-.022,6.3-.016l3.62-.013a21.205,21.205,0,0,1,14.3,6.241c2.727,4.461,2.651,8.918,2,14-2.625,5.348-5.834,7.417-11,10-2.216.092-4.435.117-6.653.114h-2.07q-3.393,0-6.785-.016l-4.7,0q-6.19-.006-12.379-.025-7.424-.018-14.848-.022-11.283-.015-22.566-.046v39l17.691-.1q5.558-.022,11.115-.041,8.816-.027,17.631-.08,7.11-.05,14.219-.058,2.708-.009,5.417-.033c2.535-.022,5.069-.025,7.6-.023l2.247-.033c6.256.037,10.963,1.316,15.512,5.748,2.332,5.411,2.369,10.816,1.562,16.625-2.2,4.577-4.3,6.082-9,8a28.161,28.161,0,0,1-8.3,1.141l-2.582.017-2.809,0-2.978.015q-4.877.021-9.754.027l-6.786.017q-7.117.015-14.234.02-9.106.008-18.211.058-7.011.027-14.021.025-3.356,0-6.712.024-4.7.025-9.406.009l-2.784.028c-7.009-.045-12.613-1.136-18.237-5.635-5.772-7.256-5.624-13.92-5.592-22.9-.007-1.314-.014-2.629-.021-3.983q-.027-5.387-.011-10.773,0-4.508-.009-9.013-.021-10.637,0-21.273.017-10.952-.029-21.9-.033-9.423-.023-18.847,0-5.619-.016-11.238c-.018-4.179,0-8.358.013-12.537-.01-1.232-.019-2.464-.029-3.733.064-7.46.612-13.453,6.014-19.1C-8.037,1.23-5,.019,0,0Z" transform="translate(1056.345 689.86)" fill="#4c9fd8"/>
    <path id="Path_7" data-name="Path 7" d="M0,0,3.365-.021C9.849.029,14.9.122,19.851,4.762c4.677,5.051,6.725,10.4,8.914,16.851l1.172,3.326q1.9,5.4,3.75,10.811,1.322,3.777,2.648,7.553,2.041,5.809,4.072,11.623C44.479,66.6,48.658,78.231,52.864,89.856q1.693,4.688,3.375,9.381c4.4,12.269,4.4,12.269,8.92,24.494q1.606,4.285,3.182,8.582c.686,1.842,1.394,3.676,2.1,5.509,3.108,8.464,5.257,17.654,1.369,26.179-4.975,5.106-9.577,7.509-16.625,7.75a20.486,20.486,0,0,1-12.75-4.312,29.561,29.561,0,0,1-6.359-11.071L34.887,152.9l-1.2-3.589L32.441,145.7c-3-8.832-3-8.832-3-12.261h-60l-3,11c-1.18,3.69-2.516,7.309-3.875,10.937l-.988,2.783c-1.889,5.045-3.334,8.4-8.137,11.28-6.232,2.832-12.3,2.853-18.75.812-4.743-2.645-7.489-5.015-9.625-10.062-1.479-8.875,1.393-16.471,4.438-24.688l1.335-3.668c4.465-12.222,9.121-24.375,13.78-36.524q6.055-15.8,11.982-31.641,1.161-3.1,2.324-6.207l.777-2.073,1.554-4.147q2.287-6.107,4.559-12.219,1.088-2.92,2.182-5.837,1.341-3.577,2.667-7.16c7.748-20.581,7.748-20.581,12.868-24.31C-11.318-.541-5.51-.1,0,0ZM-.562,43.438C-3.57,50.7-6.2,58.043-8.672,65.5L-9.8,68.873q-1.167,3.5-2.329,7-1.787,5.377-3.587,10.75-1.135,3.408-2.27,6.816l-1.089,3.254-.992,3-.879,2.641a7.39,7.39,0,0,0-.618,4.11h42q-9.733-31.592-20-63Z" transform="translate(1585.563 686.563)" fill="#4da0d9"/>
    <path id="Path_8" data-name="Path 8" d="M0,0,3.266,1C17.634,5.916,30.813,15.413,38,29c2.543,5.45,2.572,11.09,2,17a21.758,21.758,0,0,1-7,10c-6.4,2.134-14.344,2.186-20.5-.562A88.186,88.186,0,0,1,2.383,43.758C-3.1,36.253-9.562,30.547-19,29c-13.5-.908-23.615,1.013-34,10C-65.5,51.884-68.513,68.88-68.349,86.174c.4,15.1,3.6,29.968,14.162,41.389,8.872,7.967,19.486,10.872,31.25,10.375C-13.33,136.855-6.067,132.41,0,125q2.021-2.766,4-5.562c3.777-5.333,7.6-10.3,14-12.438,6.791-.46,12.23.257,17.836,4.336,3.633,3.5,4.6,6.46,4.789,11.477-.671,11.723-6.635,21.26-14.875,29.414C9.09,166.421-12.547,171.273-34,170c-22.388-2.065-42.3-9.389-57-27-15.8-20.636-19-49.051-16.031-74.2C-104.771,52.06-99.08,35.988-88,23l1.281-1.711C-76.691,8.405-60.061.364-44.227-2.566-29.8-4.342-13.932-4.458,0,0Z" transform="translate(798 689)" fill="#4da0d9"/>
    <path id="Path_9" data-name="Path 9" d="M0,0,3.148-.017l3.452,0,3.637-.015q4.94-.018,9.881-.024l6.176-.012Q35.959-.092,45.624-.1q11.15-.007,22.3-.051Q76.546-.182,85.17-.182q5.148,0,10.3-.025,5.746-.026,11.491-.009l3.434-.028c6.4.034,11.321.34,16.227,4.92,4.184,5.472,4.987,8.656,4.355,15.465a17.721,17.721,0,0,1-8,10c-5.246,2.239-9.958,2.262-15.555,2.2l-2.732-.009q-4.293-.017-8.588-.062l-5.844-.027q-7.141-.03-14.281-.1v36h-38v-36l-8.687.105q-4.2.035-8.39.059-2.9.023-5.8.062c-2.79.037-5.58.053-8.371.067L4.13,32.48c-5.98,0-12.071-.543-16.721-4.757-3.983-4.588-4.794-8.436-4.718-14.3.587-4.756,3.421-7.505,6.844-10.594C-6.9.361-4.225.014,0,0Z" transform="translate(1388.028 689.86)" fill="#4c9fd8"/>
    <path id="Path_10" data-name="Path 10" d="M0,0H38q.094,11.178.155,22.355.024,5.206.071,10.412c.039,3.986.053,7.973.067,11.959.015,1.238.031,2.475.047,3.751,0,10.811,0,10.811-3.34,15.523-4.818,4.608-8.662,7.039-15.312,7.313C14.148,71.147,9.371,70.181,5.2,66.348c-4.07-4.584-5.33-7.822-5.317-14.013,0-1.161,0-2.322,0-3.518l.016-3.8,0-3.888q.006-5.112.025-10.224.015-5.218.02-10.437Q-.034,10.235,0,0Z" transform="translate(1426 787)" fill="#4da0d9"/>
  </g>
</svg>
